<svg width="44" height="34" viewBox="0 0 44 34" fill="none" xmlns="http://www.w3.org/2000/svg">
<path d="M26 12.5375V8.925C27.1 8.42917 28.2253 8.05729 29.376 7.80938C30.5253 7.56146 31.7333 7.4375 33 7.4375C33.8667 7.4375 34.7167 7.50833 35.55 7.65C36.3833 7.79167 37.2 7.96875 38 8.18125V11.5812C37.2 11.2625 36.392 11.0238 35.576 10.8651C34.7587 10.705 33.9 10.625 33 10.625C31.7333 10.625 30.5167 10.7936 29.35 11.1307C28.1833 11.4665 27.0667 11.9354 26 12.5375ZM26 24.225V20.6125C27.1 20.1167 28.2253 19.7448 29.376 19.4969C30.5253 19.249 31.7333 19.125 33 19.125C33.8667 19.125 34.7167 19.1958 35.55 19.3375C36.3833 19.4792 37.2 19.6562 38 19.8687V23.2687C37.2 22.95 36.392 22.7113 35.576 22.5526C34.7587 22.3925 33.9 22.3125 33 22.3125C31.7333 22.3125 30.5167 22.4719 29.35 22.7906C28.1833 23.1094 27.0667 23.5875 26 24.225ZM26 18.3812V14.7687C27.1 14.2729 28.2253 13.901 29.376 13.6531C30.5253 13.4052 31.7333 13.2812 33 13.2812C33.8667 13.2812 34.7167 13.3521 35.55 13.4938C36.3833 13.6354 37.2 13.8125 38 14.025V17.425C37.2 17.1062 36.392 16.8675 35.576 16.7089C34.7587 16.5488 33.9 16.4687 33 16.4687C31.7333 16.4687 30.5167 16.6373 29.35 16.9745C28.1833 17.3102 27.0667 17.7792 26 18.3812ZM11 25.5C12.5667 25.5 14.092 25.6856 15.576 26.0567C17.0587 26.4293 18.5333 26.9875 20 27.7312V6.8C18.6333 5.95 17.1833 5.3125 15.65 4.8875C14.1167 4.4625 12.5667 4.25 11 4.25C9.8 4.25 8.60867 4.37396 7.426 4.62188C6.242 4.86979 5.1 5.24167 4 5.7375V26.775C5.16667 26.35 6.32533 26.0312 7.476 25.8187C8.62533 25.6062 9.8 25.5 11 25.5ZM24 27.7312C25.4667 26.9875 26.942 26.4293 28.426 26.0567C29.9087 25.6856 31.4333 25.5 33 25.5C34.2 25.5 35.3753 25.6062 36.526 25.8187C37.6753 26.0312 38.8333 26.35 40 26.775V5.7375C38.9 5.24167 37.7587 4.86979 36.576 4.62188C35.392 4.37396 34.2 4.25 33 4.25C31.4333 4.25 29.8833 4.4625 28.35 4.8875C26.8167 5.3125 25.3667 5.95 24 6.8V27.7312ZM22 34C20.4 32.6542 18.6667 31.6094 16.8 30.8656C14.9333 30.1219 13 29.75 11 29.75C9.6 29.75 8.22533 29.9448 6.876 30.3344C5.52533 30.724 4.23333 31.2729 3 31.9812C2.3 32.3708 1.62533 32.3531 0.976 31.9281C0.325333 31.5031 0 30.8833 0 30.0687V4.4625C0 4.07292 0.092 3.70104 0.276 3.34687C0.458667 2.99271 0.733333 2.72708 1.1 2.55C2.63333 1.7 4.23333 1.0625 5.9 0.6375C7.56667 0.2125 9.26667 0 11 0C12.9333 0 14.8253 0.265625 16.676 0.796875C18.5253 1.32812 20.3 2.125 22 3.1875C23.7 2.125 25.4753 1.32812 27.326 0.796875C29.1753 0.265625 31.0667 0 33 0C34.7333 0 36.4333 0.2125 38.1 0.6375C39.7667 1.0625 41.3667 1.7 42.9 2.55C43.2667 2.72708 43.542 2.99271 43.726 3.34687C43.9087 3.70104 44 4.07292 44 4.4625V30.0687C44 30.8833 43.6753 31.5031 43.026 31.9281C42.3753 32.3531 41.7 32.3708 41 31.9812C39.7667 31.2729 38.4747 30.724 37.124 30.3344C35.7747 29.9448 34.4 29.75 33 29.75C31 29.75 29.0667 30.1219 27.2 30.8656C25.3333 31.6094 23.6 32.6542 22 34Z" fill="white"/>
</svg>
