<svg width="237" height="60" viewBox="0 0 237 60" fill="none" xmlns="http://www.w3.org/2000/svg">
<path d="M49.0455 22.125V15.75C51.1205 14.875 53.2432 14.2188 55.4138 13.7813C57.5819 13.3438 59.8606 13.125 62.25 13.125C63.8848 13.125 65.4883 13.25 67.0602 13.5C68.6322 13.75 70.1727 14.0625 71.6818 14.4375V20.4375C70.1727 19.875 68.6486 19.4538 67.1093 19.1737C65.5675 18.8913 63.9477 18.75 62.25 18.75C59.8606 18.75 57.5655 19.0475 55.3648 19.6425C53.164 20.235 51.0576 21.0625 49.0455 22.125ZM49.0455 42.75V36.375C51.1205 35.5 53.2432 34.8438 55.4138 34.4062C57.5819 33.9688 59.8606 33.75 62.25 33.75C63.8848 33.75 65.4883 33.875 67.0602 34.125C68.6322 34.375 70.1727 34.6875 71.6818 35.0625V41.0625C70.1727 40.5 68.6486 40.0787 67.1093 39.7987C65.5675 39.5162 63.9477 39.375 62.25 39.375C59.8606 39.375 57.5655 39.6562 55.3648 40.2188C53.164 40.7812 51.0576 41.625 49.0455 42.75ZM49.0455 32.4375V26.0625C51.1205 25.1875 53.2432 24.5312 55.4138 24.0938C57.5819 23.6562 59.8606 23.4375 62.25 23.4375C63.8848 23.4375 65.4883 23.5625 67.0602 23.8125C68.6322 24.0625 70.1727 24.375 71.6818 24.75V30.75C70.1727 30.1875 68.6486 29.7663 67.1093 29.4862C65.5675 29.2038 63.9477 29.0625 62.25 29.0625C59.8606 29.0625 57.5655 29.36 55.3648 29.955C53.164 30.5475 51.0576 31.375 49.0455 32.4375ZM20.75 45C23.7053 45 26.5826 45.3275 29.382 45.9825C32.1788 46.64 34.9606 47.625 37.7273 48.9375V12C35.1492 10.5 32.414 9.375 29.5216 8.625C26.6292 7.875 23.7053 7.5 20.75 7.5C18.4864 7.5 16.2391 7.71875 14.0081 8.15625C11.7747 8.59375 9.62045 9.25 7.54545 10.125V47.25C9.74621 46.5 11.9319 45.9375 14.1025 45.5625C16.2705 45.1875 18.4864 45 20.75 45ZM45.2727 48.9375C48.0394 47.625 50.8224 46.64 53.6218 45.9825C56.4186 45.3275 59.2947 45 62.25 45C64.5136 45 66.7307 45.1875 68.9013 45.5625C71.0694 45.9375 73.2538 46.5 75.4545 47.25V10.125C73.3795 9.25 71.2266 8.59375 68.9956 8.15625C66.7622 7.71875 64.5136 7.5 62.25 7.5C59.2947 7.5 56.3708 7.875 53.4784 8.625C50.586 9.375 47.8508 10.5 45.2727 12V48.9375ZM41.5 60C38.4818 57.625 35.2121 55.7812 31.6909 54.4688C28.1697 53.1562 24.5227 52.5 20.75 52.5C18.1091 52.5 15.516 52.8438 12.9706 53.5312C10.4228 54.2188 7.98561 55.1875 5.65909 56.4375C4.33864 57.125 3.06597 57.0938 1.84109 56.3438C0.613697 55.5938 0 54.5 0 53.0625V7.875C0 7.1875 0.173545 6.53125 0.520636 5.90625C0.865212 5.28125 1.38333 4.8125 2.075 4.5C4.96742 3 7.98561 1.875 11.1295 1.125C14.2735 0.375001 17.4803 0 20.75 0C24.397 0 27.966 0.46875 31.457 1.40625C34.9455 2.34375 38.2932 3.75 41.5 5.625C44.7068 3.75 48.0557 2.34375 51.5468 1.40625C55.0353 0.46875 58.603 0 62.25 0C65.5197 0 68.7265 0.375001 71.8705 1.125C75.0144 1.875 78.0326 3 80.925 4.5C81.6167 4.8125 82.136 5.28125 82.4831 5.90625C82.8277 6.53125 83 7.1875 83 7.875V53.0625C83 54.5 82.3876 55.5938 81.1627 56.3438C79.9353 57.0938 78.6614 57.125 77.3409 56.4375C75.0144 55.1875 72.5772 54.2188 70.0294 53.5312C67.484 52.8438 64.8909 52.5 62.25 52.5C58.4773 52.5 54.8303 53.1562 51.3091 54.4688C47.7879 55.7812 44.5182 57.625 41.5 60Z" fill="white"/>
<path d="M100.869 45V15.9091H106.139V40.5824H118.952V45H100.869ZM137.205 35.8239V23.1818H142.347V45H137.361V41.1222H137.134C136.641 42.3437 135.831 43.3428 134.705 44.1193C133.587 44.8958 132.209 45.2841 130.571 45.2841C129.141 45.2841 127.877 44.9669 126.778 44.3324C125.689 43.6884 124.837 42.7557 124.222 41.5341C123.606 40.303 123.298 38.8163 123.298 37.0739V23.1818H128.44V36.2784C128.44 37.661 128.819 38.7595 129.577 39.5739C130.334 40.3883 131.329 40.7955 132.56 40.7955C133.317 40.7955 134.051 40.6108 134.761 40.2415C135.472 39.8722 136.054 39.3229 136.509 38.5938C136.973 37.8551 137.205 36.9318 137.205 35.8239ZM152.776 15.9091V45H147.634V15.9091H152.776ZM163.206 15.9091V45H158.064V15.9091H163.206ZM174.772 45.4403C173.389 45.4403 172.144 45.1941 171.036 44.7017C169.938 44.1998 169.067 43.4612 168.423 42.4858C167.788 41.5104 167.471 40.3078 167.471 38.8778C167.471 37.6468 167.698 36.6288 168.153 35.8239C168.607 35.0189 169.228 34.375 170.013 33.892C170.799 33.4091 171.685 33.0445 172.67 32.7983C173.664 32.5426 174.692 32.358 175.752 32.2443C177.031 32.1117 178.067 31.9934 178.863 31.8892C179.658 31.7756 180.236 31.6051 180.596 31.3778C180.965 31.1411 181.15 30.7765 181.15 30.2841V30.1989C181.15 29.1288 180.833 28.3002 180.198 27.7131C179.564 27.1259 178.65 26.8324 177.457 26.8324C176.197 26.8324 175.198 27.107 174.46 27.6562C173.73 28.2055 173.238 28.8542 172.982 29.6023L168.181 28.9205C168.56 27.5947 169.185 26.4867 170.056 25.5966C170.927 24.697 171.993 24.0246 173.252 23.5795C174.512 23.125 175.904 22.8977 177.428 22.8977C178.479 22.8977 179.526 23.0208 180.567 23.267C181.609 23.5133 182.561 23.9205 183.423 24.4886C184.284 25.0473 184.976 25.8097 185.496 26.7756C186.027 27.7415 186.292 28.9489 186.292 30.3977V45H181.349V42.0028H181.178C180.866 42.6089 180.425 43.1771 179.857 43.7074C179.299 44.2282 178.593 44.6496 177.741 44.9716C176.898 45.2841 175.908 45.4403 174.772 45.4403ZM176.107 41.6619C177.139 41.6619 178.034 41.4583 178.792 41.0511C179.549 40.6345 180.132 40.0852 180.539 39.4034C180.956 38.7216 181.164 37.9782 181.164 37.1733V34.6023C181.003 34.7348 180.728 34.858 180.34 34.9716C179.961 35.0852 179.535 35.1847 179.062 35.2699C178.588 35.3551 178.12 35.4309 177.656 35.4972C177.192 35.5634 176.789 35.6203 176.448 35.6676C175.681 35.7718 174.995 35.9422 174.388 36.179C173.782 36.4157 173.304 36.7472 172.954 37.1733C172.603 37.59 172.428 38.1297 172.428 38.7926C172.428 39.7396 172.774 40.4545 173.465 40.9375C174.156 41.4205 175.037 41.6619 176.107 41.6619ZM191.69 45V15.9091H196.832V26.7898H197.045C197.31 26.2595 197.684 25.696 198.167 25.0994C198.65 24.4934 199.303 23.9773 200.127 23.5511C200.951 23.1155 202.002 22.8977 203.281 22.8977C204.966 22.8977 206.486 23.3286 207.84 24.1903C209.204 25.0426 210.283 26.3068 211.079 27.983C211.884 29.6496 212.286 31.6951 212.286 34.1193C212.286 36.5152 211.893 38.5511 211.107 40.2273C210.321 41.9034 209.251 43.1818 207.897 44.0625C206.543 44.9432 205.009 45.3835 203.295 45.3835C202.045 45.3835 201.008 45.1752 200.184 44.7585C199.36 44.3419 198.697 43.84 198.195 43.2528C197.703 42.6562 197.319 42.0928 197.045 41.5625H196.746V45H191.69ZM196.732 34.0909C196.732 35.5019 196.931 36.7377 197.329 37.7983C197.736 38.8589 198.318 39.6875 199.076 40.2841C199.843 40.8712 200.771 41.1648 201.86 41.1648C202.996 41.1648 203.948 40.8617 204.715 40.2557C205.482 39.6402 206.06 38.8021 206.448 37.7415C206.846 36.6714 207.045 35.4545 207.045 34.0909C207.045 32.7367 206.851 31.5341 206.462 30.483C206.074 29.4318 205.496 28.608 204.729 28.0114C203.962 27.4148 203.006 27.1165 201.86 27.1165C200.762 27.1165 199.829 27.4053 199.062 27.983C198.295 28.5606 197.712 29.3703 197.315 30.4119C196.926 31.4536 196.732 32.6799 196.732 34.0909ZM219.112 53.1818C218.411 53.1818 217.762 53.125 217.165 53.0114C216.578 52.9072 216.11 52.7841 215.759 52.642L216.952 48.6364C217.701 48.8542 218.368 48.9583 218.955 48.9489C219.542 48.9394 220.058 48.7547 220.504 48.3949C220.958 48.0445 221.342 47.4574 221.654 46.6335L222.094 45.4545L214.183 23.1818H219.637L224.665 39.6591H224.893L229.935 23.1818H235.404L226.668 47.642C226.261 48.7973 225.721 49.7869 225.049 50.6108C224.377 51.4441 223.553 52.0786 222.577 52.5142C221.612 52.9593 220.456 53.1818 219.112 53.1818Z" fill="white"/>
</svg>
